<svg width="21" height="20" viewBox="0 0 21 20" fill="none" xmlns="http://www.w3.org/2000/svg">
<path d="M10.6094 19.0107C10.6094 19.0107 0.759033 13.3043 0.759033 6.37501C0.759234 5.1503 1.16945 3.96347 1.91995 3.01628C2.67044 2.0691 3.71488 1.42004 4.8757 1.17945C6.03651 0.938858 7.24205 1.12159 8.28734 1.69658C9.33264 2.27158 10.1532 3.20333 10.6094 4.33343L10.6094 4.33344C11.0657 3.20334 11.8862 2.27158 12.9315 1.69659C13.9768 1.1216 15.1823 0.938859 16.3431 1.17945C17.504 1.42004 18.5484 2.0691 19.2989 3.01628C20.0494 3.96346 20.4596 5.1503 20.4598 6.37501C20.4598 13.3043 10.6094 19.0107 10.6094 19.0107Z" stroke="black" stroke-linecap="round" stroke-linejoin="round"/>
</svg>
